Coordinates
version=1
nRows=19
nColumns=33
inDegrees=yes

Units are S.I. units (second, meters, Newtons, ...)
Angles are in degrees.

endheader
time	ground_thorax_rot_x	ground_thorax_rot_y	ground_thorax_rot_z	ground_thorax_tx	ground_thorax_ty	ground_thorax_tz	clav_prot_r	clav_elev_r	scapula_abduction_r	scapula_elevation_r	scapula_upward_rot_r	scapula_winging_r	shoulder_elv_r	plane_of_elev_r	axial_rot_r	elbow_flexion_r	pro_sup_r	wrist_flex_r	wrist_dev_r	clav_prot_l	clav_elev_l	scapula_abduction_l	scapula_elevation_l	scapula_upward_rot_l	scapula_winging_l	shoulder_elv_l	plane_of_elev_l	axial_rot_l	elbow_flexion_l	pro_sup_l	wrist_flex_l	wrist_dev_l
      5.94000000	     31.82822207	     23.90204477	     31.27532749	   -104.29281151	    834.10678620	    -40.21337130	     12.01494060	     34.28890947	     24.76954865	     45.00000000	    -45.00000000	  -2966.40515953	  -4965.82208003	     23.75907943	    179.99999979	   1085.14008272	    178.52001969	     13.77750095	     15.25448652	     -7.68193924	    -45.00000000	    -39.54302295	     45.00000000	    -45.00000000	   -974.79601700	  -1168.65558362	    136.74093046	   -137.24837967	   1788.96449154	     37.14143147	     14.22911189	    -17.57418874
      5.95000000	     31.86999836	     23.80815684	     31.15489108	   -105.24726729	    835.90220699	    -40.30935424	     11.98856290	     34.15942924	     24.78445736	     45.00000000	    -45.00000000	  -2966.48623292	  -4965.77893471	     23.73375403	    179.99999979	   1084.98763748	    178.10152461	     13.86515285	     15.29916237	     -7.42657488	    -45.00000000	    -39.62918820	     45.00000000	    -45.00000000	   -974.67029973	  -1168.50301079	    136.61629434	   -137.11077830	   1788.96684727	     36.76478928	     14.29403677	    -17.64343770
      5.96000000	     31.97714983	     23.72179580	     31.02381429	   -106.14035034	    837.67627235	    -40.40331144	     11.96536628	     34.19030459	     24.88732728	     45.00000000	    -45.00000000	  -2966.64802409	  -4965.76021325	     23.75537234	    179.99999979	   1084.99632184	    177.70594561	     13.93345848	     15.31278130	     -7.35566834	    -45.00000000	    -39.68777949	     45.00000000	    -45.00000000	   -974.62996042	  -1168.42703200	    136.58577513	   -136.86723963	   1788.92847859	     36.39868999	     14.36693461	    -17.76347995
      5.97000000	     32.01742766	     23.62954802	     30.90118022	   -106.97376679	    839.42349361	    -40.49404739	     11.98933221	     34.11663529	     24.83964582	     45.00000000	    -45.00000000	  -2966.72433815	  -4965.73547186	     23.77069108	    179.99999979	   1084.85778014	    177.32146269	     14.02202679	     15.32972962	     -7.27083559	    -45.00000000	    -39.80906533	     45.00000000	    -45.00000000	   -974.57252372	  -1168.35155730	    136.55406772	   -136.70645228	   1788.94866947	     36.03997239	     14.40181562	    -17.84163762
      5.98000000	     32.02522928	     23.60427992	     30.77977691	   -107.75006846	    841.14003298	    -40.58102636	     11.97440095	     34.01655186	     24.61832543	     45.00000000	    -45.00000000	  -2966.73897452	  -4965.61400462	     23.86364059	    179.99999979	   1084.75330140	    176.93336689	     14.07662602	     15.33274125	     -6.99477938	    -45.00000000	    -40.09768436	     45.00000000	    -45.00000000	   -974.47597111	  -1168.33883687	    136.49144911	   -136.56225405	   1788.94609129	     35.68652689	     14.42138091	    -17.87706353
      5.99000000	     32.22442759	     23.41372660	     30.57112060	   -108.46893954	    842.81674101	    -40.66366820	     11.96228882	     34.15804406	     25.01931819	     45.00000000	    -45.00000000	  -2966.99485329	  -4965.71803307	     23.85376775	    179.99999979	   1084.86884189	    176.64694230	     14.18174093	     15.38186074	     -7.15154182	    -45.00000000	    -39.95706717	     45.00000000	    -45.00000000	   -974.55237806	  -1168.20837038	    136.44849381	   -136.23379153	   1788.88952425	     35.40390128	     14.51979720	    -18.11219056
      6.00000000	     32.26858787	     23.24250575	     30.49095858	   -109.13230478	    844.44946348	    -40.74248794	     11.89937989	     34.03156710	     25.08460435	     45.00000000	    -45.00000000	  -2966.96542242	  -4965.65842610	     23.82772208	    179.99999979	   1084.74339933	    176.38707976	     14.28306736	     15.43725334	     -6.89328350	    -45.00000000	    -39.97873341	     45.00000000	    -45.00000000	   -974.37382578	  -1168.06121080	    136.33834438	   -136.06668942	   1788.84958870	     35.17916946	     14.55561869	    -18.17772657
      6.01000000	     32.25842431	     23.30142583	     30.42841996	   -109.73726469	    846.02216057	    -40.81746485	     11.91762630	     34.00177455	     24.87594377	     45.00000000	    -45.00000000	  -2967.08365068	  -4965.63861179	     23.86670744	    179.99999979	   1084.60938920	    176.12507758	     14.37608628	     15.42479790	     -6.78365888	    -45.00000000	    -40.24910400	     45.00000000	    -45.00000000	   -974.35571266	  -1168.08440582	    136.35139635	   -135.86153918	   1788.93725553	     34.95614612	     14.53778006	    -18.28933538
      6.02000000	     32.38029092	     23.16294252	     30.29542322	   -110.28795145	    847.53453268	    -40.88944688	     11.88946978	     34.02407694	     25.04429086	     45.00000000	    -45.00000000	  -2967.21048855	  -4965.65123039	     23.86685303	    179.99999979	   1084.59534074	    175.91779109	     14.48744157	     15.46781666	     -6.76888702	    -45.00000000	    -40.21656240	     45.00000000	    -45.00000000	   -974.34625765	  -1168.00541046	    136.29907859	   -135.61726605	   1788.91246444	     34.79411460	     14.58200891	    -18.48245108
      6.03000000	     32.41856797	     23.07378161	     30.19069317	   -110.78522925	    848.97602362	    -40.95781728	     11.86653035	     33.95917610	     25.00486407	     45.00000000	    -45.00000000	  -2967.23451112	  -4965.62274304	     23.89027377	    179.99999979	   1084.49167414	    175.74196009	     14.58377592	     15.49653135	     -6.60758732	    -45.00000000	    -40.30801752	     45.00000000	    -45.00000000	   -974.27493102	  -1167.92893790	    136.21504944	   -135.45066217	   1788.93565546	     34.68435353	     14.57467582	    -18.60378052
      6.04000000	     32.52551359	     22.99542518	     30.03179631	   -111.23182856	    850.33676813	    -41.02165661	     11.81718259	     33.96405414	     25.05113149	     45.00000000	    -45.00000000	  -2967.32853511	  -4965.61382609	     23.92081968	    179.99999979	   1084.49080583	    175.60453255	     14.68088535	     15.52770203	     -6.46062041	    -45.00000000	    -40.32940592	     45.00000000	    -45.00000000	   -974.24334600	  -1167.86752859	    136.09987939	   -135.24328297	   1788.92345089	     34.61786732	     14.58652615	    -18.80035607
      6.05000000	     32.52835582	     22.92925465	     30.00365766	   -111.63094814	    851.60939435	    -41.07838956	     11.81083138	     33.89977967	     24.97665245	     45.00000000	    -45.00000000	  -2967.32145233	  -4965.57687107	     23.93652593	    179.99999979	   1084.37115403	    175.49121512	     14.77325719	     15.51207295	     -6.38331176	    -45.00000000	    -40.47065443	     45.00000000	    -45.00000000	   -974.17363930	  -1167.85771031	    136.12597325	   -135.11446025	   1788.96644796	     34.59763474	     14.53142317	    -18.91933244
      6.06000000	     32.67889907	     22.73922210	     29.68246051	   -111.98764514	    852.78604004	    -41.12452251	     11.75350788	     33.90935004	     25.00883839	     45.00000000	    -45.00000000	  -2967.38536414	  -4965.62646863	     24.05399204	    179.99999979	   1084.37005786	    175.42471422	     14.88708310	     15.55035482	     -6.17566664	    -45.00000000	    -40.46346586	     45.00000000	    -45.00000000	   -974.16111310	  -1167.77355232	    135.88872931	   -134.97819472	   1788.90916599	     34.61316770	     14.53350543	    -19.16406539
      6.07000000	     32.54504586	     22.94366706	     29.81569276	   -112.30524655	    853.86141716	    -41.15494927	     11.78033275	     33.83165688	     24.72365086	     45.00000000	    -45.00000000	  -2967.40581610	  -4965.57411045	     24.00099661	    179.99999979	   1084.17382292	    175.36941319	     14.99134596	     15.44779493	     -6.11702576	    -45.00000000	    -40.99406493	     45.00000000	    -45.00000000	   -974.01345546	  -1167.96080020	    136.05261957	   -134.75615048	   1789.06241027	     34.65118412	     14.38094507	    -19.25295938
      6.08000000	     32.65821830	     22.82395966	     29.67388895	   -112.58594698	    854.82356357	    -41.16475246	     11.60942142	     33.82817870	     24.88940403	     45.00000000	    -45.00000000	  -2967.46568997	  -4965.58321145	     23.96608842	    179.99999979	   1084.23444950	    175.35435071	     15.09983372	     15.44254203	     -5.82035996	    -45.00000000	    -40.73534626	     45.00000000	    -45.00000000	   -974.01156277	  -1167.80419227	    135.88442519	   -134.70923077	   1788.99506518	     34.73932160	     14.37422434	    -19.49367927
      6.09000000	     32.76251708	     22.69000302	     29.51985971	   -112.82917650	    855.66889471	    -41.14956184	     11.77879030	     33.80308221	     24.78529664	     45.00000000	    -45.00000000	  -2967.47875686	  -4965.54107002	     24.06516662	    179.99999979	   1084.05935405	    175.35525073	     15.23962059	     15.31594882	     -6.19316206	    -45.00000000	    -40.60531802	     45.00000000	    -45.00000000	   -974.12146158	  -1167.77819482	    135.99504567	   -134.74494413	   1789.10814756	     34.82195686	     14.17783711	    -19.62393381
      6.10000000	     32.69231917	     22.71400886	     29.66645966	   -113.03381358	    856.38824692	    -41.10750665	     11.60720168	     33.80153736	     25.00124076	     45.00000000	    -45.00000000	  -2967.54457340	  -4965.64414092	     23.94133453	    179.99999979	   1084.09994689	    175.38151421	     15.37141068	     15.32150988	     -5.81260959	    -45.00000000	    -40.76965492	     45.00000000	    -45.00000000	   -973.87472959	  -1167.76620486	    135.84204698	   -134.62869540	   1789.09451514	     34.94616409	     14.21859210	    -19.90478173
      6.11000000	     32.65493890	     22.83567599	     29.62892843	   -113.19579910	    856.98039663	    -41.03818751	     11.64461569	     33.73878374	     24.56138916	     45.00000000	    -45.00000000	  -2967.44065849	  -4965.45769113	     24.05363974	    179.99999979	   1083.99374113	    175.40837432	     15.48928222	     15.11605293	     -5.83338679	    -45.00000000	    -41.12271543	     45.00000000	    -45.00000000	   -973.98589733	  -1167.94626168	    136.03025212	   -134.52492543	   1789.23978424	     35.06504394	     13.91712442	    -19.95119947
      6.12000000	     32.77706368	     22.61017941	     29.53169843	   -113.30926143	    857.43260632	    -40.94535484	     11.47811856	     33.72566418	     25.01743457	     45.00000000	    -45.00000000	  -2967.60591850	  -4965.67019208	     23.94711668	    179.99999979	   1083.98427551	    175.44340926	     15.70556844	     15.22108926	     -5.59817660	    -45.00000000	    -40.71057815	     45.00000000	    -45.00000000	   -973.78646058	  -1167.74103978	    135.68096559	   -134.53405120	   1789.13136171	     35.21431492	     14.06824840	    -20.32923895
